<svg width="35" height="35" viewBox="0 0 35 35" fill="none" xmlns="http://www.w3.org/2000/svg">
<g clip-path="url(#clip0_171_438)">
<path d="M17.5394 0C7.84774 0 0 7.82525 0 17.4831C0 27.1298 7.82525 34.9888 17.4269 35C27.141 35.0112 35 27.1635 35 17.4494C34.9888 7.85898 27.141 0 17.5394 0ZM29.5808 18.495C29.0186 21.1934 27.7931 23.5657 25.9155 25.5782C24.78 26.7925 23.4083 27.7257 21.9017 28.4452C20.2377 29.2323 18.4725 29.6595 16.6511 29.8731C12.7385 30.3341 9.26438 29.2997 6.23996 26.7925C5.91391 26.5226 5.63283 26.2078 5.34051 25.9155C4.38484 24.5888 3.71025 23.116 3.26052 21.5419C0.854481 13.1208 6.27369 4.4523 14.9197 2.92323C18.45 2.30485 21.7668 2.91198 24.8811 4.67716C25.061 4.77835 25.2297 4.90202 25.4096 5.01446C27.602 6.88082 28.9287 9.27562 29.6258 12.0302C30.1654 14.1889 30.0305 16.3476 29.5808 18.495Z" fill="#671D76"/>
<path d="M5.34058 25.9156C5.59917 25.9605 5.72284 26.1854 5.89149 26.3316C8.56737 28.7264 11.6705 29.9744 15.2795 29.8394C18.585 29.7158 21.6657 28.8725 24.3303 26.8263C27.1636 24.6451 28.8051 21.7219 29.5134 18.2477C30.1543 15.0884 29.9069 12.0415 28.4341 9.12952C27.7257 7.73536 26.815 6.47613 25.7132 5.36305C25.6008 5.25062 25.5108 5.13819 25.4096 5.02576C26.8375 5.86899 28.0293 6.99331 29.0637 8.27503C30.8289 10.4787 31.9307 12.9972 32.2005 15.808C32.7289 21.4858 30.6939 26.0955 26.1292 29.5246C24.1054 31.0425 21.7893 31.9194 19.2934 32.2005C15.0997 32.6727 11.3332 31.5596 8.06142 28.8838C7.00457 28.0293 6.07138 27.0624 5.34058 25.9156Z" fill="#F6DF51"/>
<path d="M11.1082 17.5281C11.0969 18.4388 10.3212 19.2033 9.39921 19.1808C8.47727 19.1583 7.73522 18.3938 7.74646 17.4718C7.75771 16.5499 8.53349 15.8079 9.45543 15.8191C10.3661 15.8303 11.1194 16.5949 11.1082 17.5281Z" fill="#671D76"/>
<path d="M17.5169 19.1808C16.595 19.1808 15.8305 18.4275 15.8192 17.5168C15.808 16.5949 16.5725 15.8303 17.4832 15.8191C18.4051 15.8079 19.1697 16.5611 19.1809 17.4831C19.1922 18.405 18.4276 19.1808 17.5169 19.1808Z" fill="#671D76"/>
<path d="M27.2534 17.5168C27.2534 18.4388 26.4664 19.192 25.5557 19.1808C24.6338 19.1696 23.8805 18.405 23.8917 17.4831C23.903 16.5611 24.6675 15.8079 25.5894 15.8191C26.5114 15.8303 27.2647 16.5949 27.2534 17.5168Z" fill="#671D76"/>
</g>
<defs>
<clipPath id="clip0_171_438">
<rect width="35" height="35" fill="white"/>
</clipPath>
</defs>
</svg>
