<svg width="593" height="684" viewBox="0 0 593 684" fill="none" xmlns="http://www.w3.org/2000/svg">
<g clip-path="url(#clip0_3_419)">
<path d="M157.14 653.777C89.5957 648.806 32.779 599.892 14.5022 532.088C-8.34365 447.583 -4.37045 355.322 27.6138 273.998C70.5244 164.836 162.901 78.143 271.37 44.9372C361.959 17.2988 474.003 33.4047 527.442 114.331C562.406 167.023 565.386 235.224 565.585 299.25C565.784 360.492 564.592 422.728 547.706 481.385C530.819 540.042 496.054 595.716 443.806 624.15C396.923 649.8 341.695 650.794 288.653 651.59C242.564 652.186 198.66 656.958 157.14 653.777Z" fill="#671D76"/>
<path d="M82.2452 151.912C105.886 114.53 130.321 95.0442 167.073 71.9791C182.37 62.4349 200.647 50.5047 199.852 32.0128C199.057 16.1058 183.562 5.16978 168.464 1.78955C134.691 -5.9651 98.734 11.9302 77.2787 39.7675C55.8234 67.6047 46.8837 104.191 45.0958 139.981C44.4998 149.923 45.6917 161.854 54.4328 166.029C64.5644 171 75.2921 161.058 82.2452 151.912Z" fill="#671D76"/>
<path d="M540.951 540.44C541.944 538.451 542.938 536.463 543.732 534.474C548.5 522.147 553.268 518.766 557.837 504.848C558.632 502.66 559.228 500.473 560.618 498.684C565.188 492.122 575.518 492.321 582.272 496.695C595.185 505.245 595.98 525.527 586.841 537.855C576.908 550.978 559.029 556.148 542.739 555.551C541.15 555.551 539.56 554.358 539.163 552.767C537.772 547.995 538.964 544.019 540.951 540.44Z" fill="#671D76"/>
<path d="M575.915 260.278C571.743 288.314 556.049 314.56 532.21 330.07C525.058 334.643 516.715 339.216 514.529 347.369C513.139 352.538 514.728 358.106 516.119 363.276C538.567 445.395 533.998 534.872 503.404 614.407C501.418 619.776 493.471 635.683 493.471 635.683C493.471 635.683 370.501 660.935 333.153 661.333L334.742 649.203L336.53 635.683C339.311 614.805 342.689 590.745 346.463 564.897C368.316 411.792 401.691 196.252 403.876 189.293C410.432 168.415 424.536 228.265 425.132 250.137C433.079 239.599 445.396 232.64 458.507 231.645C453.541 208.381 454.534 190.884 461.288 169.012C461.686 167.421 464.07 167.222 464.864 168.614C478.175 191.679 479.764 211.762 487.71 239.4C489.101 243.973 488.505 250.137 493.074 251.728C495.855 252.722 498.835 251.529 501.418 250.336C517.311 243.377 533.203 236.417 548.898 229.259C556.844 225.68 564.989 222.101 573.134 218.522C577.107 232.043 577.902 246.359 575.915 260.278Z" fill="white"/>
<path d="M350.833 590.348C350.833 590.348 327.392 416.166 253.093 357.112C252.099 356.316 254.682 357.112 254.881 358.305C256.669 384.551 266.403 586.371 335.139 649.402L350.833 590.348Z" fill="white"/>
<path d="M575.915 260.278C562.605 252.921 553.864 238.803 549.096 229.06C557.043 225.481 565.188 221.902 573.333 218.323C577.107 232.043 577.902 246.359 575.915 260.278Z" fill="#320D38"/>
<path d="M450.163 290.103C452.15 295.273 452.349 300.244 450.163 301.04C448.177 301.835 444.8 298.256 442.614 293.086C440.628 287.916 440.429 282.945 442.614 282.15C444.8 281.355 448.177 284.934 450.163 290.103Z" fill="#320D38"/>
<path d="M477.777 276.583C479.764 281.752 479.963 286.723 477.777 287.519C475.791 288.314 472.413 284.735 470.228 279.565C468.242 274.395 468.043 269.424 470.228 268.629C472.215 267.834 475.592 271.413 477.777 276.583Z" fill="#320D38"/>
<path fill-rule="evenodd" clip-rule="evenodd" d="M524.081 327.161C524.26 326.951 524.575 326.925 524.786 327.104C524.996 327.282 525.022 327.598 524.844 327.808L524.462 327.485L524.081 327.161ZM524.081 327.161L524.462 327.485C524.844 327.808 524.843 327.809 524.843 327.809L524.842 327.81L524.838 327.815L524.822 327.834C524.808 327.85 524.788 327.873 524.761 327.904C524.708 327.964 524.63 328.053 524.527 328.167C524.321 328.396 524.018 328.726 523.624 329.134C522.836 329.95 521.685 331.082 520.231 332.348C517.325 334.878 513.191 337.956 508.3 340.121C503.408 342.286 497.733 343.547 491.766 342.404C485.792 341.26 479.585 337.717 473.615 330.385C473.441 330.171 473.473 329.856 473.687 329.682C473.901 329.508 474.216 329.54 474.39 329.754C480.24 336.938 486.251 340.329 491.954 341.422C497.665 342.516 503.128 341.316 507.895 339.206C512.664 337.096 516.713 334.085 519.574 331.594C521.003 330.35 522.133 329.239 522.904 328.439C523.289 328.04 523.585 327.719 523.784 327.498C523.883 327.388 523.958 327.303 524.008 327.246C524.033 327.217 524.052 327.196 524.064 327.182L524.077 327.166L524.08 327.162L524.081 327.161Z" fill="#320D38"/>
<path d="M46.884 646.221C46.884 646.221 25.4287 423.921 100.324 262.863L122.573 321.321C122.573 321.321 138.069 315.753 157.339 321.321L180.383 262.863C180.383 262.863 278.124 467.665 259.847 670.877L46.884 646.221Z" fill="white"/>
<path d="M119.395 352.737C119.395 359.299 117.607 364.667 115.223 364.667C112.839 364.667 111.051 359.299 111.051 352.737C111.051 346.176 112.839 340.807 115.223 340.807C117.607 340.807 119.395 346.176 119.395 352.737Z" fill="#320D38"/>
<path d="M148.399 352.737C148.399 359.299 146.611 364.667 144.227 364.667C141.843 364.667 140.055 359.299 140.055 352.737C140.055 346.176 141.843 340.807 144.227 340.807C146.611 340.807 148.399 346.176 148.399 352.737Z" fill="#320D38"/>
<path fill-rule="evenodd" clip-rule="evenodd" d="M48.6635 345.638C48.7409 345.523 48.8964 345.493 49.0107 345.571L122.912 395.678C123.026 395.755 123.056 395.911 122.979 396.025C122.901 396.139 122.746 396.169 122.632 396.092L48.7301 345.985C48.6158 345.907 48.586 345.752 48.6635 345.638Z" fill="#320D38"/>
<path fill-rule="evenodd" clip-rule="evenodd" d="M123.014 395.822C123.049 395.955 122.969 396.092 122.835 396.127L34.0344 419.391C33.9008 419.426 33.7642 419.346 33.7292 419.212C33.6942 419.079 33.7741 418.942 33.9077 418.907L122.709 395.643C122.842 395.608 122.979 395.688 123.014 395.822Z" fill="#320D38"/>
<path fill-rule="evenodd" clip-rule="evenodd" d="M52.3974 386.107C52.4164 385.971 52.5427 385.875 52.6795 385.894L122.806 395.637C122.943 395.656 123.039 395.783 123.02 395.919C123.001 396.056 122.874 396.152 122.738 396.133L52.6106 386.389C52.4739 386.37 52.3784 386.244 52.3974 386.107Z" fill="#320D38"/>
<path fill-rule="evenodd" clip-rule="evenodd" d="M228.886 354.425C228.942 354.551 228.886 354.699 228.759 354.755L133.403 397.108C133.276 397.164 133.129 397.107 133.073 396.981C133.017 396.854 133.073 396.707 133.2 396.651L228.556 354.298C228.683 354.242 228.83 354.299 228.886 354.425Z" fill="#320D38"/>
<path fill-rule="evenodd" clip-rule="evenodd" d="M133.065 396.798C133.11 396.667 133.252 396.598 133.383 396.643L222.78 427.462C222.91 427.507 222.979 427.65 222.934 427.78C222.889 427.911 222.747 427.98 222.617 427.935L133.22 397.115C133.089 397.07 133.02 396.928 133.065 396.798Z" fill="#320D38"/>
<path fill-rule="evenodd" clip-rule="evenodd" d="M212.021 389.1C212.034 389.237 211.934 389.36 211.796 389.373L133.326 397.128C133.188 397.141 133.066 397.041 133.052 396.904C133.039 396.766 133.139 396.644 133.276 396.63L211.747 388.876C211.885 388.862 212.007 388.962 212.021 389.1Z" fill="#320D38"/>
<path d="M182.569 530.697C217.135 537.656 254.682 530.299 283.289 509.421C297.593 498.883 310.108 485.56 318.055 469.654C326.001 453.945 330.173 436.249 330.372 418.751C330.57 401.055 326.597 383.557 319.048 367.65C315.273 359.696 310.307 352.538 304.744 345.977C298.387 338.421 290.64 332.257 282.495 326.491C274.548 320.724 266.204 315.555 258.059 309.59C257.066 308.993 256.271 308.198 255.278 307.601C254.881 307.203 254.285 307.005 253.888 306.607C255.477 307.8 254.285 306.806 253.888 306.607C251.901 305.016 249.914 303.227 247.928 301.437C246.338 299.847 244.749 298.256 243.16 296.665C242.365 295.87 241.769 295.074 240.975 294.279C240.577 293.881 240.379 293.484 239.981 293.086C239.783 292.887 238.193 290.7 239.584 292.49C236.803 288.91 234.419 285.133 232.432 280.957C232.234 280.36 231.836 279.764 231.638 279.167C231.042 277.776 232.234 280.758 231.836 279.366C231.439 278.173 231.042 277.179 230.644 276.185C229.85 273.998 229.452 271.81 229.055 269.424C228.856 268.43 228.459 268.43 229.055 269.822C228.856 269.424 228.856 268.629 228.856 268.231C228.856 267.237 228.658 266.243 228.856 265.249C228.856 264.056 229.055 263.062 229.055 261.869C229.055 260.477 228.658 263.658 229.055 262.266C229.254 261.67 229.254 261.073 229.452 260.477C229.651 259.284 230.048 258.29 230.446 257.097C230.644 256.699 230.843 256.102 231.042 255.705C231.24 255.108 231.439 253.517 231.042 255.506C231.439 253.517 233.227 251.131 234.419 249.541C234.618 249.143 235.015 248.745 235.214 248.348C235.611 247.95 235.809 246.956 235.015 248.547C235.412 247.751 236.405 246.956 237.001 246.16C238.591 244.371 240.18 242.78 241.968 241.19C242.763 240.394 243.756 239.599 244.551 238.803C244.948 238.406 247.928 236.219 245.941 237.61C247.928 236.219 249.716 234.827 251.702 233.435C260.046 227.669 268.986 222.698 276.932 216.335C284.481 210.37 291.434 203.212 295.407 194.264C299.579 184.919 301.367 174.38 298.586 164.438C297.195 159.269 294.613 154.894 291.236 150.917C287.858 146.941 280.707 147.14 277.131 150.917C273.356 155.093 273.555 160.66 277.131 165.035C278.323 166.427 276.932 164.836 276.932 164.637C276.932 164.836 277.528 165.631 277.727 165.83C278.323 166.626 278.72 167.62 279.117 168.614C279.713 169.807 278.521 166.824 278.919 168.216C279.117 168.614 279.117 169.012 279.316 169.608C279.515 170.006 280.309 172.392 280.111 172.591C280.309 172.392 279.912 170.403 280.111 171.994C280.111 172.392 280.111 172.988 280.111 173.386C280.111 174.38 280.111 175.573 280.111 176.567C280.111 176.965 280.111 177.562 279.912 177.959C279.912 179.351 280.309 175.971 279.912 177.363C279.713 178.357 279.515 179.55 279.316 180.544C279.117 181.538 278.72 182.334 278.521 183.328C278.323 183.726 278.124 184.322 278.124 184.72C277.329 186.907 278.72 183.328 278.124 184.72C277.329 186.509 276.336 188.498 275.144 190.088C274.548 190.884 274.151 191.679 273.555 192.474C274.945 190.685 272.562 193.469 272.164 193.866C270.575 195.656 268.986 197.247 267.198 198.837C266.403 199.633 265.608 200.229 264.615 201.024C264.218 201.422 263.821 201.621 263.423 202.019C265.013 200.826 263.622 201.82 263.225 202.217C261.437 203.609 259.45 205.001 257.463 206.194C253.49 208.779 249.517 211.364 245.544 213.75C237.597 218.92 229.651 224.487 223.294 231.447C216.738 238.803 211.374 247.552 209.785 257.494C208.196 268.231 209.984 278.372 214.156 288.314C222.102 306.806 237.597 319.531 253.689 330.666C257.662 333.45 261.635 336.035 265.608 338.819C267.595 340.21 269.582 341.602 271.568 342.994C272.562 343.591 273.356 344.386 274.35 344.983C274.747 345.38 275.343 345.579 275.74 345.977C276.336 346.573 277.131 347.17 276.137 346.176C279.713 349.158 283.289 352.141 286.666 355.521C288.057 356.913 289.448 358.305 290.64 359.895C291.236 360.691 291.832 361.287 292.428 362.083C292.626 362.281 293.62 363.474 292.825 362.48C291.832 361.287 293.024 362.878 293.222 363.077C295.606 366.258 297.593 369.638 299.579 373.019C300.573 374.808 301.367 376.399 302.361 378.188C302.758 378.984 303.155 379.779 303.553 380.773C303.751 381.171 304.347 382.563 303.751 381.171C303.155 379.779 303.95 381.569 303.95 381.966C306.93 389.323 308.718 397.078 310.108 404.833C310.307 406.622 310.108 404.435 310.108 404.236C310.108 404.634 310.307 405.23 310.307 405.628C310.506 406.622 310.506 407.815 310.704 408.809C310.903 410.798 310.903 412.786 311.102 414.774C311.3 418.751 311.102 422.728 310.704 426.705C310.704 427.699 310.506 428.494 310.506 429.488C310.506 429.886 310.307 430.483 310.307 430.88C310.108 433.266 310.506 429.091 310.307 430.681C309.91 432.67 309.711 434.658 309.314 436.647C308.519 440.623 307.526 444.401 306.334 448.179C305.738 449.969 305.142 451.957 304.347 453.747C304.149 454.144 303.95 454.542 303.751 455.138C303.354 456.331 304.546 453.349 303.95 454.741C303.553 455.735 303.155 456.729 302.559 457.524C300.771 461.104 298.983 464.683 296.798 467.864C295.805 469.654 294.613 471.244 293.421 472.835C293.222 473.034 291.434 475.42 292.229 474.426C293.024 473.431 292.03 474.624 291.832 474.823C291.434 475.221 291.037 475.817 290.64 476.215C288.057 479.397 285.276 482.18 282.296 484.964C280.905 486.356 279.316 487.748 277.727 488.941C276.932 489.537 276.336 490.134 275.541 490.73C275.144 490.929 274.747 491.327 274.35 491.526C273.356 492.321 275.939 490.333 274.35 491.526C271.171 493.912 267.794 496.099 264.218 498.286C260.642 500.274 257.066 502.263 253.49 503.853C252.696 504.251 251.702 504.649 250.908 505.047C249.318 505.842 251.106 505.046 251.305 504.848C250.709 505.046 250.113 505.245 249.716 505.444C247.928 506.24 245.941 506.836 243.955 507.631C240.18 509.023 236.207 510.017 232.234 511.012C230.247 511.409 228.26 511.807 226.274 512.205C225.281 512.404 224.486 512.602 223.493 512.602C223.095 512.602 222.499 512.801 222.102 512.801C220.91 513 224.089 512.602 222.301 512.801C214.156 513.795 206.01 513.994 198.064 513.199C197.071 513.199 196.077 513 195.283 513C194.886 513 194.29 513 193.892 512.801C196.276 513.398 194.687 513 194.091 512.801C192.104 512.403 190.118 512.205 188.131 511.807C182.966 510.813 177.205 513.199 175.814 518.766C174.622 523.538 177.205 529.702 182.569 530.697Z" fill="white"/>
<path fill-rule="evenodd" clip-rule="evenodd" d="M5.1501 583.074C5.65323 582.846 6.24574 583.069 6.4735 583.572L6.46421 583.577C6.47351 583.572 6.47353 583.573 6.47357 583.573L6.47492 583.576L6.48155 583.59L6.51053 583.653C6.53689 583.709 6.57737 583.795 6.63232 583.909C6.74223 584.138 6.91001 584.48 7.13841 584.926C7.59522 585.82 8.29449 587.132 9.25818 588.794C11.1856 592.12 14.1704 596.845 18.3882 602.42C26.824 613.571 40.1895 628.118 59.8915 641.669C99.2721 668.753 164.071 691.923 265.651 675.854C266.196 675.768 266.708 676.14 266.795 676.686C266.881 677.231 266.509 677.743 265.963 677.83C163.917 693.972 98.5933 670.714 58.7582 643.317C38.8524 629.626 25.3367 614.92 16.7932 603.627C12.5215 597.98 9.49212 593.186 7.52786 589.797C6.54569 588.103 5.8297 586.76 5.35772 585.837C5.12172 585.375 4.94672 585.019 4.82995 584.776C4.77156 584.655 4.72772 584.562 4.6981 584.498L4.66427 584.425L4.65527 584.406L4.65274 584.4C4.65201 584.398 4.6515 584.397 5.5625 583.985L4.6515 584.397C4.42374 583.894 4.64696 583.302 5.1501 583.074Z" fill="#671D76"/>
<path fill-rule="evenodd" clip-rule="evenodd" d="M372.132 15.3154C372.131 15.3154 372.131 15.3154 372.09 14.3178L372.131 15.3154C371.579 15.3379 371.113 14.9088 371.091 14.3569C371.068 13.8051 371.498 13.3396 372.049 13.3171L372.09 14.3163C372.049 13.3171 372.051 13.3171 372.052 13.317L372.059 13.3167L372.084 13.3158L372.181 13.3124C372.266 13.3096 372.391 13.3058 372.556 13.3016C372.886 13.2932 373.373 13.2835 374.009 13.2777C375.28 13.2662 377.143 13.2707 379.522 13.3341C384.28 13.461 391.103 13.8239 399.376 14.7674C415.92 16.654 438.287 20.8644 461.56 30.1646C508.14 48.778 558.351 87.7919 572.728 169.235C572.824 169.779 572.461 170.298 571.917 170.394C571.373 170.49 570.855 170.127 570.759 169.583C556.529 88.9743 506.913 50.4418 460.818 32.0218C437.754 22.8052 415.571 18.6272 399.15 16.7545C390.941 15.8184 384.177 15.4589 379.469 15.3334C377.115 15.2706 375.276 15.2663 374.027 15.2776C373.403 15.2833 372.926 15.2928 372.607 15.3009C372.447 15.305 372.327 15.3087 372.247 15.3113L372.158 15.3144L372.137 15.3152L372.132 15.3154Z" fill="#671D76"/>
</g>
<defs>
<clipPath id="clip0_3_419">
<rect width="593" height="684" fill="white"/>
</clipPath>
</defs>
</svg>
